<mxfile host="app.diagrams.net" modified="2024-07-17T22:44:16.187Z" agent="Mozilla/5.0 (Windows NT 10.0; Win64; x64) AppleWebKit/537.36 (KHTML, like Gecko) Chrome/126.0.0.0 Safari/537.36" version="24.6.4" etag="RtbY4Pbu6V6hznDerMTE" type="github">
  <diagram name="Page-1" id="VAv1-eu2XG_TfNwKK5kz">
    <mxGraphModel>
      <root>
        <mxCell id="0" />
        <mxCell id="1" parent="0" />
      </root>
    </mxGraphModel>
  </diagram>
</mxfile>
